<?xml version="1.0" encoding="UTF-8"?>
<svg id="Layer_1" data-name="Layer 1" xmlns="http://www.w3.org/2000/svg" viewBox="0 0 200 48">
  <defs>
    <style>
      .cls-1 {
        fill: #807f83;
      }

      .cls-2 {
        fill: #00539b;
      }
    </style>
  </defs>
  <g>
    <path class="cls-2" d="M55.96,27.63v.57c.06,2.09-.3,3.6-1.09,4.53-.79.93-2.11,1.39-3.94,1.39s-3.15-.43-4.02-1.29c-.87-.86-1.3-2.18-1.3-3.98v-8.57c0-2.07.43-3.57,1.28-4.49.85-.92,2.24-1.38,4.16-1.38,1.82,0,3.12.42,3.9,1.25.7.73,1.05,1.84,1.04,3.34v.64s-.01.57-.01.57h-2.63v-.57c.04-1.16-.11-1.97-.43-2.41-.32-.44-.93-.66-1.83-.66-1,0-1.72.25-2.16.76-.44.51-.66,1.34-.66,2.5v8.57c0,1.35.19,2.27.56,2.78.37.51,1.06.76,2.05.76.9,0,1.54-.29,1.93-.88.39-.59.57-1.54.55-2.87v-.57h2.63Z"/>
    <path class="cls-2" d="M58.81,14.64h2.5v7.05l.05-.05c.86-.96,1.82-1.43,2.88-1.43s1.85.28,2.41.85c.56.56.85,1.37.85,2.41v10.42h-2.44v-9.64c0-.7-.15-1.23-.44-1.6-.29-.37-.72-.55-1.28-.55-.69,0-1.2.24-1.54.72-.33.48-.5,1.21-.5,2.2v8.88h-2.5V14.64Z"/>
    <path class="cls-2" d="M73.9,34.18c-1.61,0-2.74-.39-3.4-1.17-.66-.78-.98-2.11-.98-4v-3.9c0-1.66.36-2.9,1.07-3.7.72-.8,1.82-1.2,3.31-1.2s2.63.39,3.34,1.17c.7.78,1.06,2.02,1.06,3.73v2.96h-6.28v.98c0,1.32.12,2.19.37,2.61.24.42.75.63,1.51.63.65,0,1.13-.17,1.44-.5.31-.33.44-.84.42-1.53v-.4h2.5v.4c.07,1.33-.26,2.31-.97,2.95-.71.64-1.84.96-3.38.96ZM75.8,26.21v-1.07c0-1.16-.14-1.96-.41-2.4-.27-.44-.77-.65-1.49-.65-.66,0-1.14.24-1.44.72-.3.48-.44,1.26-.44,2.34v1.07h3.78Z"/>
    <path class="cls-2" d="M85.61,24.38v-.4c.03-.65-.07-1.13-.3-1.44-.23-.3-.6-.46-1.12-.46-.47,0-.83.11-1.06.33-.24.22-.35.56-.35,1s.12.83.36,1.12c.23.28.79.73,1.65,1.34,1.39.98,2.32,1.76,2.8,2.35.47.58.7,1.25.7,2.01,0,1.26-.36,2.24-1.08,2.92-.72.68-1.75,1.02-3.08,1.02-1.43,0-2.49-.33-3.18-1-.66-.62-.99-1.54-.98-2.76v-.63h2.45v.39c-.04.7.09,1.23.38,1.58.29.35.73.52,1.33.52s1-.14,1.28-.41c.28-.27.42-.68.42-1.23,0-.48-.16-.91-.48-1.3-.32-.38-.95-.9-1.89-1.57-1.24-.87-2.07-1.59-2.49-2.14-.42-.56-.63-1.22-.63-1.98,0-1.11.34-1.96,1.01-2.57.67-.6,1.63-.9,2.86-.9,1.38,0,2.38.3,3,.9.59.57.88,1.44.87,2.62v.26s0,.4,0,.4h-2.46Z"/>
    <path class="cls-2" d="M93.4,34.18c-1.02,0-1.79-.32-2.32-.97-.53-.65-.79-1.59-.79-2.82v.03c0-1.78.43-3.01,1.3-3.71.86-.69,2.39-1.04,4.58-1.04h.31v-1.6c0-.64-.14-1.13-.43-1.47-.29-.34-.7-.51-1.23-.51-.56,0-1,.19-1.3.57-.31.38-.46.93-.46,1.64h-2.47c-.04-1.28.31-2.29,1.05-3.01.74-.72,1.78-1.08,3.14-1.08,1.45,0,2.52.33,3.19.98.67.65,1.01,1.69,1.01,3.1v9.6h-2.5v-1.39c-.06.15-.13.3-.23.45-.54.82-1.49,1.23-2.85,1.23ZM96.49,27.52h-.55c-1.02,0-1.79.24-2.32.72-.53.48-.8,1.17-.8,2.08v-.03c0,.72.12,1.23.35,1.54.24.31.63.46,1.17.46.74,0,1.29-.3,1.65-.9.36-.6.53-1.48.49-2.63v-1.24Z"/>
    <path class="cls-2" d="M101.49,20.49h2.5v1.47h.01c.86-1.18,1.84-1.76,2.95-1.76s1.91.36,2.45,1.09c.54.73.81,1.82.81,3.27v4.97c0,1.61-.28,2.79-.83,3.53-.55.74-1.43,1.11-2.63,1.11s-2.06-.35-2.62-1.06l-.14-.18v11.49s-1.22,0-1.22,0h-1.27v-23.95ZM105.95,32.29c.58,0,1.02-.25,1.32-.74.3-.5.45-1.22.45-2.16v-4.97c0-.77-.14-1.35-.44-1.73-.29-.38-.73-.57-1.32-.57-.67,0-1.18.25-1.51.76-.33.51-.49,1.27-.47,2.29v4.57c0,.87.16,1.52.48,1.93.32.41.81.62,1.49.62Z"/>
    <path class="cls-2" d="M116.58,34.18c-1.61,0-2.74-.39-3.4-1.17-.66-.78-.98-2.11-.98-4v-3.9c0-1.66.36-2.9,1.07-3.7.71-.8,1.82-1.2,3.31-1.2s2.63.39,3.34,1.17c.71.78,1.06,2.02,1.06,3.73v2.96h-6.28v.98c0,1.32.12,2.19.37,2.61.25.42.75.63,1.51.63.66,0,1.14-.17,1.44-.5.31-.33.44-.84.42-1.53v-.4h2.5v.4c.06,1.33-.26,2.31-.98,2.95-.71.64-1.84.96-3.38.96ZM118.48,26.21v-1.07c0-1.16-.14-1.96-.41-2.4-.27-.44-.77-.65-1.49-.65-.66,0-1.14.24-1.44.72-.29.48-.44,1.26-.44,2.34v1.07h3.78Z"/>
    <path class="cls-2" d="M126.06,34.18c-1.02,0-1.79-.32-2.32-.97-.53-.65-.79-1.59-.79-2.82v.03c0-1.78.43-3.01,1.3-3.71.86-.69,2.39-1.04,4.58-1.04h.31v-1.6c0-.64-.14-1.13-.43-1.47-.29-.34-.7-.51-1.23-.51-.57,0-1,.19-1.3.57-.31.38-.46.93-.46,1.64h-2.47c-.04-1.28.31-2.29,1.05-3.01.73-.72,1.78-1.08,3.14-1.08,1.45,0,2.52.33,3.19.98.67.65,1.01,1.69,1.01,3.1v9.6h-2.5v-1.39c-.05.15-.13.3-.23.45-.54.82-1.49,1.23-2.85,1.23ZM129.14,27.52h-.55c-1.02,0-1.79.24-2.33.72-.53.48-.8,1.17-.8,2.08v-.03c0,.72.12,1.23.36,1.54.24.31.63.46,1.17.46.74,0,1.29-.3,1.65-.9.36-.6.53-1.48.49-2.63v-1.24Z"/>
    <path class="cls-2" d="M136.83,33.89h-2.5V14.64h2.5v19.25ZM136.82,26.52h0l3.53-6.03h2.64l-3.51,6.03,3.78,7.37h-2.59l-3.86-7.37Z"/>
    <path class="cls-2" d="M149.24,34.18c-1.61,0-2.74-.39-3.4-1.17-.65-.78-.98-2.11-.98-4v-3.9c0-1.66.36-2.9,1.07-3.7.71-.8,1.82-1.2,3.31-1.2s2.63.39,3.34,1.17c.7.78,1.06,2.02,1.06,3.73v2.96h-6.28v.98c0,1.32.12,2.19.37,2.61.24.42.75.63,1.51.63.66,0,1.13-.17,1.44-.5.3-.33.44-.84.42-1.53v-.4h2.5v.4c.06,1.33-.26,2.31-.98,2.95-.71.64-1.84.96-3.38.96ZM151.14,26.21v-1.07c0-1.16-.14-1.96-.41-2.4-.27-.44-.77-.65-1.49-.65-.66,0-1.14.24-1.44.72-.3.48-.44,1.26-.44,2.34v1.07h3.78Z"/>
  </g>
  <path class="cls-2" d="M50.16,40.77h-3.15v2.82h3.52v.85h-4.58v-7.81h4.4v.85h-3.34v2.47h3.15v.83Z"/>
  <path class="cls-2" d="M51.86,40.34c0-.59-.02-1.06-.05-1.52h.93l.05.92h.04c.33-.53.87-1.03,1.85-1.03.78,0,1.39.46,1.64,1.13h.02c.18-.32.42-.56.66-.73.35-.25.72-.39,1.28-.39.78,0,1.93.49,1.93,2.43v3.29h-1.04v-3.16c0-1.09-.42-1.73-1.27-1.73-.61,0-1.07.43-1.26.92-.05.15-.08.32-.08.51v3.46h-1.04v-3.36c0-.89-.41-1.53-1.22-1.53-.65,0-1.15.51-1.31,1.02-.06.14-.08.32-.08.5v3.37h-1.04v-4.09Z"/>
  <path class="cls-2" d="M61.91,40.66c0-.72-.02-1.3-.05-1.83h.94l.06.96h.02c.42-.68,1.12-1.08,2.07-1.08,1.42,0,2.48,1.15,2.48,2.84,0,2.02-1.29,3.01-2.66,3.01-.77,0-1.45-.32-1.8-.88h-.02v3.05h-1.05v-6.07ZM62.96,42.15c0,.15.01.29.05.42.19.71.83,1.19,1.59,1.19,1.12,0,1.77-.88,1.77-2.17,0-1.11-.62-2.07-1.74-2.07-.72,0-1.41.49-1.6,1.25-.04.13-.07.28-.07.41v.97Z"/>
  <path class="cls-2" d="M68.78,36.21h1.06v8.23h-1.06v-8.23Z"/>
  <path class="cls-2" d="M76.9,41.58c0,2.07-1.51,2.98-2.9,2.98-1.57,0-2.8-1.11-2.8-2.89,0-1.87,1.29-2.97,2.89-2.97s2.81,1.17,2.81,2.87ZM72.28,41.64c0,1.23.72,2.16,1.76,2.16s1.77-.92,1.77-2.18c0-.95-.49-2.14-1.75-2.14s-1.78,1.11-1.78,2.17Z"/>
  <path class="cls-2" d="M78.54,38.83l1.27,3.31c.14.37.29.81.39,1.15h.02c.11-.34.23-.77.37-1.17l1.16-3.29h1.12l-1.59,4c-.76,1.92-1.28,2.9-2,3.51-.53.43-1.04.6-1.3.65l-.26-.85c.26-.08.61-.24.93-.5.29-.22.64-.61.89-1.14.05-.1.08-.19.08-.24s-.02-.14-.08-.27l-2.15-5.17h1.16Z"/>
  <path class="cls-2" d="M84.31,41.82c.02,1.38.93,1.95,2,1.95.76,0,1.23-.13,1.61-.29l.19.73c-.37.16-1.02.36-1.95.36-1.79,0-2.87-1.15-2.87-2.84s1.04-3.01,2.74-3.01c1.92,0,2.41,1.6,2.41,2.63,0,.21-.01.36-.04.48h-4.1ZM87.42,41.09c.01-.64-.28-1.65-1.47-1.65-1.08,0-1.54.94-1.63,1.65h3.1Z"/>
  <path class="cls-2" d="M89.76,40.58c0-.66-.01-1.23-.05-1.75h.93l.05,1.11h.04c.26-.75.92-1.23,1.63-1.23.11,0,.19.01.29.02v.96c-.11-.02-.22-.02-.36-.02-.75,0-1.28.53-1.42,1.3-.02.14-.04.31-.04.47v2.99h-1.06v-3.86Z"/>
  <path class="cls-2" d="M93.56,43.4c.32.19.88.39,1.41.39.76,0,1.12-.36,1.12-.83s-.3-.74-1.07-1.02c-1.06-.37-1.56-.92-1.56-1.59,0-.9.77-1.65,2.01-1.65.59,0,1.11.15,1.42.35l-.25.74c-.23-.14-.65-.34-1.19-.34-.63,0-.96.35-.96.77,0,.46.34.67,1.1.96,1,.36,1.53.85,1.53,1.68,0,1-.81,1.69-2.17,1.69-.64,0-1.23-.16-1.64-.39l.25-.76Z"/>
  <path class="cls-2" d="M108.73,36.62v7.81h-1.02v-7.81h1.02Z"/>
  <path class="cls-2" d="M110.58,40.34c0-.59-.01-1.06-.05-1.52h.91l.06.93h.02c.28-.52.93-1.04,1.86-1.04.78,0,1.99.46,1.99,2.39v3.34h-1.02v-3.23c0-.9-.34-1.66-1.3-1.66-.66,0-1.19.47-1.37,1.04-.05.13-.07.3-.07.48v3.37h-1.02v-4.09Z"/>
  <path class="cls-2" d="M116.89,43.4c.31.19.85.39,1.36.39.73,0,1.08-.36,1.08-.83s-.29-.74-1.03-1.02c-1.02-.37-1.5-.92-1.5-1.59,0-.9.74-1.65,1.94-1.65.57,0,1.07.15,1.37.35l-.24.74c-.22-.14-.63-.34-1.15-.34-.6,0-.93.35-.93.77,0,.46.33.67,1.06.96.96.36,1.48.85,1.48,1.68,0,1-.78,1.69-2.09,1.69-.62,0-1.19-.16-1.58-.39l.24-.76Z"/>
  <path class="cls-2" d="M126.34,42.89c0,.59.01,1.1.05,1.54h-.91l-.06-.91h-.02c-.26.45-.86,1.04-1.86,1.04-.88,0-1.94-.5-1.94-2.46v-3.28h1.02v3.09c0,1.07.34,1.8,1.26,1.8.69,0,1.16-.47,1.35-.94.06-.14.09-.32.09-.52v-3.43h1.02v4.07Z"/>
  <path class="cls-2" d="M128.04,40.58c0-.66-.01-1.23-.05-1.75h.89l.05,1.11h.04c.25-.75.88-1.23,1.57-1.23.1,0,.19.01.28.02v.96c-.1-.02-.21-.02-.35-.02-.72,0-1.23.53-1.37,1.3-.02.14-.03.31-.03.47v2.99h-1.02v-3.86Z"/>
  <path class="cls-2" d="M135.74,43.09c0,.49.02.96.08,1.34h-.92l-.08-.71h-.03c-.31.44-.92.84-1.72.84-1.14,0-1.72-.8-1.72-1.61,0-1.36,1.21-2.1,3.39-2.09v-.12c0-.45-.13-1.3-1.28-1.29-.53,0-1.08.15-1.48.42l-.23-.68c.47-.29,1.15-.49,1.86-.49,1.72,0,2.14,1.17,2.14,2.28v2.1ZM134.75,41.57c-1.12-.02-2.38.17-2.38,1.26,0,.67.44.97.95.97.74,0,1.22-.46,1.38-.94.03-.12.05-.23.05-.32v-.97Z"/>
  <path class="cls-2" d="M137.39,40.34c0-.59-.01-1.06-.05-1.52h.91l.06.93h.02c.28-.52.93-1.04,1.86-1.04.78,0,1.99.46,1.99,2.39v3.34h-1.02v-3.23c0-.9-.34-1.66-1.3-1.66-.66,0-1.19.47-1.37,1.04-.05.13-.07.3-.07.48v3.37h-1.02v-4.09Z"/>
  <path class="cls-2" d="M147.86,44.24c-.27.13-.86.32-1.62.32-1.7,0-2.8-1.15-2.8-2.86s1.18-2.99,3.02-2.99c.61,0,1.14.15,1.42.3l-.23.78c-.24-.13-.63-.27-1.19-.27-1.29,0-1.99.96-1.99,2.12,0,1.3.84,2.1,1.95,2.1.58,0,.97-.14,1.26-.27l.18.77Z"/>
  <path class="cls-2" d="M149.56,41.82c.02,1.38.9,1.95,1.93,1.95.73,0,1.19-.13,1.56-.29l.18.73c-.36.16-.99.36-1.88.36-1.73,0-2.77-1.15-2.77-2.84s1-3.01,2.64-3.01c1.85,0,2.33,1.6,2.33,2.63,0,.21-.01.36-.03.48h-3.95ZM152.56,41.09c.01-.64-.27-1.65-1.42-1.65-1.05,0-1.49.94-1.57,1.65h2.99Z"/>
  <path class="cls-1" d="M133.72,7.7c-5.75-1.33-10.98-2.3-16.17-2.97l-.33-3.82h-2.04l-.29,3.51c-4.43-.48-8.89-.73-13.69-.8-6.11-.08-11.85.2-17.14.72l-.3-3.44h-2.05l-.31,3.73c-12.09,1.43-21.67,4.06-27.79,6.12-4.89,1.65-7.78,2.68-7.57,2.92.17.19,7.02-1.73,9.65-2.34,9.31-2.16,16.94-3.21,25.48-3.89l-.51,6.23h1.4l.34-6.33c.08,0,.15-.01.23-.02h.57l.27,6.35h1.4l-.56-6.46c6.14-.41,12.06-.53,17.67-.44,4.17.07,8.53.31,12.66.63l-.51,6.26h1.4l.32-6.11h.64c.05,0,.1,0,.15.01l.29,6.1h1.4l-.52-5.99c6.49.59,12.1,1.35,15.12,1.9,12.54,2.31,20.05,4.47,20.16,4.09.12-.4-10.94-4.03-19.37-5.98Z"/>
  <g>
    <path class="cls-2" d="M150.47,37.27v-1.51h-.57v-.2h1.36v.2h-.57v1.51h-.23Z"/>
    <path class="cls-2" d="M151.55,37.27v-1.71h.34l.41,1.21c.04.11.06.2.08.25.02-.06.05-.15.09-.28l.41-1.19h.31v1.71h-.22v-1.44l-.5,1.44h-.2l-.5-1.46v1.46h-.22Z"/>
  </g>
</svg>
